<svg xmlns="http://www.w3.org/2000/svg" xmlns:xlink="http://www.w3.org/1999/xlink" width="500" zoomAndPan="magnify" viewBox="0 0 375 374.999991" height="500" preserveAspectRatio="xMidYMid meet" version="1.0"><defs><clipPath id="f563165717"><path d="M 113.9375 47.738281 L 253.4375 47.738281 L 253.4375 327.488281 L 113.9375 327.488281 Z M 113.9375 47.738281 " clip-rule="nonzero"/></clipPath><clipPath id="b381ede1c6"><path d="M 183.5625 186.640625 L 212.660156 186.640625 L 212.660156 215.742188 L 183.5625 215.742188 Z M 183.5625 186.640625 " clip-rule="nonzero"/></clipPath><clipPath id="ab213e6ac2"><path d="M 198.113281 186.640625 C 190.078125 186.640625 183.5625 193.15625 183.5625 201.191406 C 183.5625 209.226562 190.078125 215.742188 198.113281 215.742188 C 206.148438 215.742188 212.660156 209.226562 212.660156 201.191406 C 212.660156 193.15625 206.148438 186.640625 198.113281 186.640625 " clip-rule="nonzero"/></clipPath></defs><g clip-path="url(#f563165717)"><path fill="#fb3617" d="M 113.9375 187.613281 C 113.9375 264.863281 176.394531 327.488281 253.4375 327.488281 L 253.4375 47.738281 C 176.394531 47.738281 113.9375 110.363281 113.9375 187.613281 Z M 113.9375 187.613281 " fill-opacity="1" fill-rule="nonzero"/></g><path stroke-linecap="butt" transform="matrix(0.000000000000000046, 0.749121, -0.75, 0.000000000000000046, 261.314049, 47.741932)" fill="none" stroke-linejoin="miter" d="M 0.00034098 10.502066 L 373.448272 10.502066 " stroke="#f6c48e" stroke-width="21" stroke-opacity="1" stroke-miterlimit="4"/><g clip-path="url(#b381ede1c6)"><g clip-path="url(#ab213e6ac2)"><path fill="#1d8698" d="M 183.5625 186.640625 L 212.660156 186.640625 L 212.660156 215.742188 L 183.5625 215.742188 Z M 183.5625 186.640625 " fill-opacity="1" fill-rule="nonzero"/></g></g></svg>